<?xml version="1.0" standalone="no"?>
<!DOCTYPE svg PUBLIC "-//W3C//DTD SVG 20010904//EN"
 "http://www.w3.org/TR/2001/REC-SVG-20010904/DTD/svg10.dtd">
<svg version="1.0" xmlns="http://www.w3.org/2000/svg"
 width="109.000000pt" height="67.000000pt" viewBox="0 0 109.000000 67.000000"
 preserveAspectRatio="xMidYMid meet">

<g transform="translate(0.000000,67.000000) scale(0.100000,-0.100000)"
fill="#000000" stroke="none">
<path d="M20 350 l0 -320 525 0 525 0 0 320 0 320 -525 0 -525 0 0 -320z m435
245 c28 -12 78 -48 113 -80 l63 -58 32 30 c91 87 211 90 292 8 94 -94 83 -236
-26 -315 -37 -26 -50 -30 -111 -30 -75 0 -92 6 -154 56 l-40 33 -55 -55 c-102
-105 -197 -134 -318 -98 -98 29 -191 153 -191 256 0 88 75 214 151 254 74 38
159 38 244 -1z"/>
<path d="M272 550 c-77 -33 -142 -125 -142 -201 1 -59 43 -135 97 -173 33 -22
57 -31 101 -34 77 -6 124 18 223 114 41 41 79 74 84 74 4 0 24 -17 44 -37 55
-58 81 -73 131 -73 62 0 104 28 125 83 14 38 15 51 5 81 -17 53 -72 96 -121
96 -52 0 -72 -11 -136 -72 l-51 -50 -84 79 c-45 43 -96 87 -112 97 -33 21
-130 31 -164 16z m143 -24 c19 -8 72 -51 117 -95 l83 -80 -65 -67 c-36 -36
-85 -79 -109 -95 -120 -77 -277 2 -289 145 -11 140 133 246 263 192z m456 -72
c44 -22 72 -88 58 -137 -23 -85 -119 -114 -195 -58 -21 15 -50 40 -63 55 -21
23 -23 29 -12 48 7 13 35 42 62 66 55 47 96 54 150 26z"/>
<path d="M271 444 c-90 -76 -42 -214 74 -214 47 0 70 13 127 70 l46 48 -51 50
c-29 27 -62 55 -74 61 -38 19 -89 13 -122 -15z m134 -66 l30 -29 -37 -34 c-43
-40 -69 -44 -98 -15 -29 29 -26 74 7 99 32 26 56 20 98 -21z"/>
<path d="M763 376 l-28 -24 20 -22 c59 -66 145 -24 105 51 -15 27 -62 24 -97
-5z"/>
</g>
</svg>
